<?xml version="1.0" encoding="UTF-8"?>
<svg id="_レイヤー_1" data-name="レイヤー 1" xmlns="http://www.w3.org/2000/svg" viewBox="0 0 553.25 553.25">
  <rect width="553.25" height="553.25" rx="53.86" ry="53.86" fill="#333a45"/>
  <g>
    <g>
      <polygon points="115.31 253.88 113.78 252.91 112.44 252.13 112.03 251.91 111.14 251.48 109.98 251 109.18 250.71 108.34 250.45 107.47 250.22 106.55 250.02 105.61 249.86 104.7 249.74 103.97 249.67 103.25 249.63 101.85 249.6 101.13 249.61 100.37 249.65 99.17 249.78 97.94 249.96 96.77 250.18 96.04 250.34 95.37 250.52 94.71 250.72 94.06 250.94 93.39 251.19 92.74 251.46 92.1 251.75 91.47 252.06 90.86 252.39 90.26 252.74 89.68 253.12 88.53 253.91 87.98 254.33 87.44 254.77 86.91 255.23 86.4 255.72 85.46 256.67 84.6 257.62 84.12 258.21 83.65 258.85 83.19 259.52 82.68 260.34 82.21 261.19 81.79 262.03 81.47 262.72 81.19 263.41 80.93 264.13 80.67 265.04 80.45 265.97 80.28 266.85 80.2 267.41 80.15 267.96 80.11 268.54 80.08 269.49 80.08 270.51 80.12 271.47 80.17 272.08 80.24 272.65 80.34 273.24 80.51 274.16 80.73 275.12 80.99 276.07 81.23 276.8 81.5 277.49 81.8 278.16 82.12 278.82 82.48 279.49 82.87 280.14 83.29 280.78 83.74 281.41 84.21 282.01 84.7 282.6 85.22 283.17 85.79 283.75 86.52 284.43 87.3 285.1 88.08 285.73 88.74 286.22 89.39 286.68 90.06 287.11 90.89 287.6 91.78 288.07 92.75 288.51 93.96 288.98 95.19 289.38 96.35 289.69 97.05 289.85 97.73 289.97 98.43 290.07 99.37 290.17 100.35 290.25 101.3 290.3 102.02 290.31 102.73 290.3 103.48 290.25 104.67 290.13 105.91 289.94 107.09 289.73 107.8 289.57 108.47 289.4 109.15 289.19 110.04 288.88 110.94 288.53 111.8 288.16 112.37 287.89 112.91 287.6 113.45 287.3 114.52 286.65 114.99 286.34 115.43 286.01 116 285.56 116.76 284.92 123.65 291.54 123.22 291.91 122.08 292.85 121.56 293.25 120.51 294 119.32 294.77 118.02 295.52 116.77 296.17 115.47 296.76 114.16 297.3 112.86 297.78 111.34 298.27 109.81 298.67 108.24 299.01 106.86 299.24 105.43 299.42 104 299.54 102.57 299.62 100.86 299.63 99.19 299.55 97.54 299.4 96.29 299.23 95.04 299.01 93.79 298.74 92.52 298.4 91.2 297.99 89.89 297.52 88.65 297.02 87.49 296.5 86.53 296.02 85.64 295.52 84.75 294.98 83.54 294.21 82.3 293.33 81.04 292.37 79.95 291.44 78.89 290.45 77.88 289.44 76.94 288.41 75.99 287.27 75.12 286.1 74.31 284.85 73.64 283.69 73.01 282.47 72.43 281.22 71.92 279.96 71.48 278.66 71.11 277.41 70.83 276.22 70.67 275.45 70.54 274.7 70.43 273.95 70.34 273.12 70.27 272.27 70.19 270.6 70.16 269.03 70.17 268.37 70.2 267.72 70.26 267.06 70.37 266.15 70.53 265.21 70.71 264.26 70.93 263.23 71.19 262.19 71.52 261.12 71.89 260.09 72.32 259.05 72.77 258.05 73.23 257.12 73.63 256.36 74.05 255.64 74.49 254.92 75.17 253.9 75.92 252.85 76.71 251.84 77.38 251.04 78.05 250.3 78.71 249.6 79.97 248.33 80.64 247.7 81.51 246.96 82.44 246.23 83.42 245.53 84.55 244.8 85.71 244.11 86.92 243.48 88.02 242.97 89.11 242.52 90.12 242.15 90.75 241.94 91.38 241.75 92.04 241.57 93.17 241.3 94.37 241.06 95.51 240.85 96.78 240.67 98.14 240.54 98.95 240.47 99.8 240.43 100.94 240.39 102.11 240.38 103.28 240.4 104.24 240.44 105.17 240.51 106.04 240.6 107.29 240.76 107.93 240.86 108.75 241.03 109.61 241.22 110.45 241.43 111.77 241.8 113.11 242.24 114.01 242.56 115.12 243 116.36 243.55 117.63 244.18 118.41 244.62 119.43 245.24 120.37 245.85 115.31 253.88 115.31 253.88" fill="#fff"/>
      <polygon points="227.57 252.79 217.69 254.73 217.46 254.25 217.24 253.84 217 253.46 216.57 252.89 216.07 252.32 215.51 251.79 215.11 251.47 214.69 251.17 214.24 250.89 213.77 250.64 213.28 250.42 212.77 250.24 211.95 250.02 211.12 249.88 210.31 249.81 209.56 249.81 209.01 249.84 208.5 249.91 207.98 250.03 207.22 250.26 206.45 250.56 205.7 250.93 205.13 251.27 204.62 251.65 204.14 252.06 203.69 252.51 203.28 253.01 202.9 253.53 202.55 254.11 202.25 254.72 202.02 255.36 201.84 256.02 201.73 256.7 201.7 257.38 201.74 258.06 201.86 258.73 202.05 259.38 202.28 259.95 202.57 260.48 202.92 260.97 203.29 261.39 203.69 261.77 204.13 262.13 204.66 262.52 205.23 262.89 205.84 263.23 206.71 263.66 207.65 264.06 208.63 264.43 209.74 264.81 210.84 265.15 213.28 265.87 214.9 266.4 215.84 266.74 217.47 267.38 218.16 267.69 218.88 268.03 219.89 268.58 220.91 269.19 221.85 269.79 222.35 270.14 223.27 270.85 223.9 271.37 224.55 271.95 225.2 272.59 225.88 273.35 226.51 274.15 227.07 274.95 227.47 275.59 227.82 276.26 228.14 276.97 228.48 277.89 228.77 278.83 228.98 279.7 229.07 280.19 229.13 280.65 229.17 281.13 229.2 282.12 229.16 283.23 229.02 284.39 228.84 285.3 228.61 286.18 228.35 287 228.07 287.75 227.83 288.3 227.57 288.83 227.27 289.37 226.7 290.3 226.04 291.27 225.31 292.22 224.65 292.97 223.97 293.65 223.27 294.27 222.53 294.87 221.74 295.43 220.89 295.98 219.69 296.66 218.41 297.29 217.13 297.82 216.13 298.18 215.16 298.46 214.17 298.69 213.18 298.88 212.17 299.02 211.17 299.11 210.31 299.15 209.45 299.14 208.61 299.1 207.74 299.03 206.86 298.92 205.97 298.76 204.91 298.52 203.83 298.22 202.76 297.85 201.69 297.42 200.67 296.95 199.72 296.45 199.08 296.07 198.47 295.68 197.88 295.26 197.24 294.76 196.61 294.24 196 293.7 195.44 293.17 194.94 292.65 194.48 292.15 194.03 291.6 193.62 291.03 193.18 290.35 192.52 289.21 192.19 288.58 191.89 287.93 191.35 286.62 201.33 284.65 201.67 285.29 201.89 285.63 202.1 285.93 202.33 286.2 202.81 286.71 203.08 286.96 203.48 287.29 203.9 287.61 204.34 287.91 204.73 288.15 205.12 288.37 205.52 288.58 205.94 288.77 206.37 288.94 206.8 289.1 207.52 289.31 208.35 289.48 208.87 289.55 209.17 289.57 209.84 289.58 210.6 289.52 211.13 289.45 211.67 289.34 212.2 289.2 212.71 289.04 213.67 288.69 214.18 288.46 214.92 288.08 215.42 287.79 215.91 287.47 216.29 287.2 216.65 286.91 216.98 286.61 217.32 286.26 217.66 285.87 217.97 285.44 218.34 284.8 218.65 284.12 218.88 283.45 219 282.98 219.06 282.51 219.07 282.02 219.02 281.47 218.92 280.9 218.78 280.34 218.6 279.82 218.39 279.38 218.14 278.99 217.83 278.61 217.31 278.08 216.72 277.56 216.09 277.08 215.53 276.72 214.96 276.4 214.38 276.11 213.65 275.76 212.87 275.42 212.02 275.09 210.71 274.65 209.34 274.24 206.95 273.57 205.98 273.29 205.07 272.99 204.35 272.73 202.91 272.15 201.9 271.69 200.86 271.18 199.83 270.61 198.8 269.94 197.82 269.22 196.9 268.46 196.16 267.78 195.47 267.07 194.83 266.33 194.33 265.69 193.88 265.04 193.49 264.43 193.09 263.7 192.71 262.88 192.34 261.91 192.18 261.43 192.03 260.94 191.9 260.43 191.77 259.76 191.67 259.07 191.6 258.39 191.58 257.84 191.57 257.3 191.61 256.2 191.66 255.62 191.72 255.05 191.82 254.48 191.93 253.93 192.21 252.82 192.37 252.28 192.55 251.75 192.76 251.22 192.99 250.7 193.24 250.17 193.59 249.52 193.97 248.86 194.37 248.23 194.71 247.74 195.05 247.29 195.62 246.58 196.14 246.02 196.52 245.63 196.93 245.24 197.38 244.83 197.98 244.35 198.59 243.88 199.2 243.44 199.7 243.12 200.19 242.82 200.7 242.53 201.37 242.19 202.09 241.85 202.84 241.54 203.61 241.26 204.37 241.02 205.11 240.82 205.69 240.68 206.28 240.56 206.89 240.47 207.69 240.37 208.51 240.3 209.29 240.25 210.16 240.24 211.46 240.31 212.32 240.39 212.76 240.44 213.21 240.52 214.02 240.68 214.88 240.89 215.73 241.12 216.37 241.33 216.98 241.56 217.56 241.8 218.14 242.06 218.7 242.34 219.27 242.64 219.83 242.97 220.87 243.63 221.56 244.13 221.9 244.4 222.4 244.82 222.91 245.28 223.4 245.76 223.86 246.23 224.29 246.71 224.72 247.25 225.31 248.07 225.88 248.95 226.36 249.79 226.59 250.24 226.79 250.67 227.19 251.68 227.41 252.27 227.59 252.84 227.57 252.79 227.57 252.79" fill="#fff"/>
      <polygon points="279.88 277.83 279.88 242.56 289.53 242.56 289.53 276.67 289.51 277.82 289.47 279.19 289.44 279.84 289.38 280.49 289.3 281.13 289.2 281.79 289.05 282.6 288.86 283.43 288.61 284.29 288.26 285.3 287.87 286.29 287.46 287.2 287.17 287.78 286.86 288.34 286.51 288.91 285.91 289.79 285.25 290.7 284.6 291.53 283.85 292.38 282.91 293.34 282.31 293.92 281.7 294.48 281.14 294.96 280.58 295.4 280.02 295.83 278.84 296.64 277.69 297.35 277.13 297.66 276.57 297.95 275.91 298.27 275.22 298.58 274.5 298.87 273.58 299.21 272.62 299.52 271.65 299.8 270.76 300.02 269.86 300.2 268.97 300.34 268.14 300.45 267.31 300.53 265.92 300.62 264.74 300.64 263.32 300.61 262.56 300.56 261.44 300.46 260.27 300.32 259.1 300.12 257.97 299.87 256.88 299.57 255.84 299.24 254.99 298.93 254.15 298.59 253.32 298.22 252.43 297.76 251.55 297.27 250.71 296.76 250.02 296.31 249.37 295.84 248.71 295.33 247.86 294.62 247 293.84 246.16 293.03 245.38 292.22 244.66 291.38 243.97 290.5 243.33 289.59 242.74 288.67 242.23 287.78 241.93 287.2 241.67 286.63 241.42 286.05 241.17 285.38 240.93 284.7 240.71 284 240.51 283.28 240.34 282.55 240.21 281.81 240.09 280.97 240 280.11 239.95 279.26 239.91 278.51 239.88 276.97 239.87 274.59 239.87 242.56 249.52 242.56 249.52 277.83 249.53 278.64 249.58 279.19 249.65 279.76 249.77 280.38 249.91 280.99 250.07 281.56 250.25 282.11 250.47 282.66 250.77 283.31 251.1 283.97 251.48 284.61 251.87 285.19 252.3 285.75 252.74 286.27 253.22 286.8 253.75 287.33 254.33 287.86 254.99 288.39 255.7 288.9 256.43 289.38 257.13 289.79 257.73 290.09 258.31 290.35 258.89 290.57 259.49 290.78 260.1 290.98 260.73 291.15 261.37 291.29 262.01 291.41 262.66 291.5 263.33 291.56 264 291.6 264.7 291.61 265.5 291.59 266.29 291.53 267.06 291.45 267.64 291.35 268.2 291.23 268.77 291.09 269.48 290.89 270.21 290.65 270.92 290.38 271.52 290.12 272.09 289.84 272.64 289.53 273.18 289.21 273.71 288.85 274.24 288.47 274.87 287.97 275.48 287.44 276.06 286.88 276.5 286.42 276.91 285.96 277.29 285.49 277.57 285.1 277.83 284.71 278.31 283.92 278.54 283.51 278.76 283.07 278.99 282.52 279.2 281.94 279.38 281.39 279.5 280.97 279.6 280.55 279.68 280.1 279.77 279.47 279.84 278.83 279.88 278.28 279.88 277.83 279.88 277.83" fill="#fff"/>
      <path d="M157.83,240.07l-27.13,59.26h10.65s4.31-8.94,4.31-8.94h24.32s4.32,8.94,4.32,8.94h10.65s-27.13-59.26-27.13-59.26h0ZM149.19,282.55l8.68-19.94,8.61,19.94h-17.28Z" fill="#fff"/>
    </g>
    <g>
      <path d="M300.5,279.86c-.87,1.73-1.37,3.38-1.37,4.63,0,1.65.79,2.67,2.82,2.67,3.98,0,12.86-4.55,17.92-8.87.07-.08.22-.08.29-.08.36,0,.65.39.65.63,0,.08,0,.16-.07.24-5.5,5.02-15.47,9.66-20.67,9.66-2.82,0-3.98-1.34-3.98-3.3,0-5.81,9.76-17.27,14.96-17.27,1.3,0,1.95.71,1.95,1.57,0,3.61-8.09,8.09-12.5,10.13ZM301.51,277.97c5.06-1.96,9.03-5.65,9.03-7.62,0-.16-.15-.31-.36-.31-2.46,0-6.29,3.85-8.67,7.93Z" fill="#fff"/>
      <path d="M323.7,296.34c-8.09,12.8-16.91,25.67-19.59,25.67-1.01,0-1.59-.63-1.59-1.96,0-3.61,4.62-11.93,19.08-23.63,4.48-7.38,8.75-14.76,11.2-18.61,0-.16-.07-.16-.14-.16-.14,0-.36.08-.58.32-2.6,2.36-10.55,9.66-14.67,9.66-.87-.16-1.44-.86-1.44-1.96,0-3.77,8.02-13.35,10.11-15.62,0,0,.65-.71,1.3-.71.29,0,.79.16.79.63,0,.16-.07.39-.29.71-.29.31-8.89,10.28-8.89,13.5,0,.63.29,1.02,1.09,1.02,4.12,0,14.02-10.75,16.55-13.82.94-1.02,1.81-1.81,2.38-1.81.37,0,.65.39.65,1.34,0-.47-6.5,10.52-14.02,22.38,4.77-3.54,10.34-7.38,16.91-11.46,1.81-1.1,3.54-2.36,4.91-3.53.07-.08.22-.08.29-.08.36,0,.65.39.65.63,0,.08,0,.16-.07.24-1.52,1.34-3.25,2.67-5.2,3.85-7.81,4.71-14.24,9.27-19.44,13.43ZM304.69,318.96c2.68,0,8.89-9.27,14.96-19.24-11.2,9.73-15.32,16.88-15.32,18.76,0,.31.15.47.36.47Z" fill="#fff"/>
      <path d="M348.35,279.86c-.87,1.73-1.37,3.38-1.37,4.63,0,1.65.79,2.67,2.82,2.67,3.98,0,12.86-4.55,17.92-8.87.07-.08.21-.08.29-.08.36,0,.65.39.65.63,0,.08,0,.16-.07.24-5.49,5.02-15.47,9.66-20.67,9.66-2.82,0-3.98-1.34-3.98-3.3,0-5.81,9.76-17.27,14.96-17.27,1.3,0,1.95.71,1.95,1.57,0,3.61-8.09,8.09-12.5,10.13ZM349.36,277.97c5.06-1.96,9.03-5.65,9.03-7.62,0-.16-.15-.31-.36-.31-2.46,0-6.29,3.85-8.67,7.93Z" fill="#fff"/>
      <path d="M397.28,276.64c-.29-1.02-.43-2.28-.43-3.61,0-.94.29-4.87,1.45-4.87.72,0,1.44,1.26,1.44,1.73-.15,1.89-.51,3.77-.94,5.5,1.73,4.4,4.12,6.2,6.94,6.2,2.24,0,4.62-1.18,7.08-3.3.07-.08.22-.08.29-.08.36,0,.65.39.65.63,0,.08,0,.16-.07.24-2.53,2.36-5.71,3.69-8.67,3.69s-5.78-1.41-7.16-4.56c-2.24,5.42-6.36,9.34-11.93,9.34-1.88,0-3.18-.94-3.18-3.45,0-2.2,3.54-7.3,3.76-7.77.07-.08.15-.23.15-.39,0-.16-.07-.32-.21-.32s-.44.16-.94.63c-1.3,1.18-11.92,10.21-13.08,10.99-.58.47-1.08.79-1.52.79-.36,0-.87-.39-.87-.94,0-.86.87-2.28,1.66-3.22,1.59-1.73,6-8.56,6-10.21,0-.79-.22-1.18-.72-1.18-.65,0-1.66.7-3.25,2.12-1.52,1.34-3.4,3.22-5.86,5.1-.29.16-.51.16-.65.16-.29,0-.43-.16-.43-.39,0-.23.14-.55.14-.55,2.68-2.2,6-5.26,8.39-7.69.94-1.02,1.88-1.41,2.75-1.41,1.44,0,2.53,1.25,2.53,2.98,0,2.35-3.69,7.46-3.98,8.64-.07.16-.07.23-.07.32,0,.08,0,.16.07.16.87,0,12.5-9.89,13.73-11.23.29-.32.87-.63,1.37-.63.65,0,1.08.55,1.08,1.26,0,.63-.36,1.34-1.37,2.51-2.24,2.83-5.78,7.62-5.78,10.13,0,1.18.94,1.88,2.38,1.88,4.05,0,8.02-5.26,9.25-9.18Z" fill="#fff"/>
      <path d="M413.63,279.86c-.87,1.73-1.37,3.38-1.37,4.63,0,1.65.79,2.67,2.82,2.67,3.98,0,12.86-4.55,17.92-8.87.07-.08.22-.08.29-.08.36,0,.65.39.65.63,0,.08,0,.16-.07.24-5.5,5.02-15.47,9.66-20.67,9.66-2.82,0-3.98-1.34-3.98-3.3,0-5.81,9.76-17.27,14.96-17.27,1.3,0,1.95.71,1.95,1.57,0,3.61-8.09,8.09-12.5,10.13ZM414.64,277.97c5.06-1.96,9.03-5.65,9.03-7.62,0-.16-.15-.31-.36-.31-2.46,0-6.29,3.85-8.67,7.93Z" fill="#fff"/>
      <path d="M428.74,286.69c0-5.81,11.85-18.21,22.76-18.21.94,0,1.66.23,1.66.86,0,.55-.51,1.33-1.81,2.59-1.95,1.96-6.94,8.87-6.94,12.48,0,1.33.65,2.2,2.38,2.2,4.26,0,13.3-6.75,15.1-8.32.07-.08.22-.08.29-.08.36,0,.65.39.65.63,0,.08,0,.16-.07.24-4.34,3.85-13.15,9.26-17.92,9.26-2.02,0-3.11-1.18-3.11-3.22,0-1.26.36-2.75,1.23-4.63-3.62,3.3-9.33,8.24-12.43,8.24-1.23,0-1.81-.79-1.81-2.04ZM450.06,269.96c0-.24-.15-.32-.51-.32-4.62,0-17.92,9.5-17.92,15.23,0,.86.43,1.34,1.45,1.34,2.17,0,7.22-4.16,10.77-7.54,1.37-2.43,3.32-5.18,6-8.25.15-.23.22-.31.22-.47Z" fill="#fff"/>
      <path d="M461.41,279.86c-.29,0-.43-.16-.43-.39,0-.23.15-.55.15-.55,4.84-3.77,11.71-10.99,11.71-10.99.15-.16.29-.16.43-.16.43,0,.72.63.72,1.02l-.07,1.18c0,3.77,1.23,4.95,1.23,6.67,0,.24,0,.55-.07.78-3.54,4.08-4.99,6.67-4.99,8.17,0,1.1.79,1.57,2.1,1.57,3.98,0,12.86-4.55,17.92-8.87.07-.08.22-.08.29-.08.36,0,.65.39.65.63,0,.08,0,.16-.07.24-5.49,5.02-15.46,9.66-20.67,9.66-2.02,0-3.32-.79-3.32-2.43,0-1.88,1.59-4.95,5.64-9.66-.51-.63-1.01-4.32-1.08-4.87,0-.24-.07-.31-.21-.31-.58,0-3.11,3.53-9.25,8.24-.29.16-.51.16-.65.16Z" fill="#fff"/>
    </g>
  </g>
</svg>